<svg xmlns="http://www.w3.org/2000/svg" width="3400" height="2850" viewBox="0 0 3400 2850">
<rect width="3400" height="2850" fill="#f8f9f4"/>
<rect x="48" y="38" width="3304" height="2774" rx="30" ry="30" fill="#f8f9f4" stroke="#d7dfd8" stroke-width="2"/>
<text x="92" y="148" font-family="Arial, Helvetica, sans-serif" font-size="62" font-weight="700" fill="#1e2b28">Game Moment To Learning Mapping</text>
<text x="92" y="203" font-family="Arial, Helvetica, sans-serif" font-size="29" font-weight="400" fill="#65726d">The loop is playable only if each action has learning value and safe defaults.</text>
<line x1="92" y1="2738" x2="3308" y2="2738" stroke="#d7dfd8" stroke-width="2" stroke-linecap="round"/>
<text x="92" y="2790" font-family="Arial, Helvetica, sans-serif" font-size="18" font-weight="400" fill="#65726d">documentation gate only / no implementation / no app integration / no SRS write / no BuildState / no frame_started</text>
<rect x="120" y="330" width="690" height="130" rx="20" ry="20" fill="#ffffff" stroke="#d7dfd8" stroke-width="2"/>
<rect x="120" y="330" width="690" height="16" rx="9" ry="9" fill="#8f9d98"/>
<text x="148" y="399" font-family="Arial, Helvetica, sans-serif" font-size="31" font-weight="700" fill="#1e2b28">Play action</text>
<text x="148" y="456" font-family="Arial, Helvetica, sans-serif" font-size="18" font-weight="400" fill="#65726d"></text>
<rect x="930" y="330" width="690" height="130" rx="20" ry="20" fill="#ffffff" stroke="#d7dfd8" stroke-width="2"/>
<rect x="930" y="330" width="690" height="16" rx="9" ry="9" fill="#67a7cb"/>
<text x="958" y="399" font-family="Arial, Helvetica, sans-serif" font-size="31" font-weight="700" fill="#1e2b28">Learning value</text>
<text x="958" y="456" font-family="Arial, Helvetica, sans-serif" font-size="18" font-weight="400" fill="#65726d"></text>
<rect x="1740" y="330" width="690" height="130" rx="20" ry="20" fill="#ffffff" stroke="#d7dfd8" stroke-width="2"/>
<rect x="1740" y="330" width="690" height="16" rx="9" ry="9" fill="#59b7aa"/>
<text x="1768" y="399" font-family="Arial, Helvetica, sans-serif" font-size="31" font-weight="700" fill="#1e2b28">Outcome</text>
<text x="1768" y="456" font-family="Arial, Helvetica, sans-serif" font-size="18" font-weight="400" fill="#65726d"></text>
<rect x="2550" y="330" width="690" height="130" rx="20" ry="20" fill="#ffffff" stroke="#d7dfd8" stroke-width="2"/>
<rect x="2550" y="330" width="690" height="16" rx="9" ry="9" fill="#d96d67"/>
<text x="2578" y="399" font-family="Arial, Helvetica, sans-serif" font-size="31" font-weight="700" fill="#1e2b28">Blocked</text>
<text x="2578" y="456" font-family="Arial, Helvetica, sans-serif" font-size="18" font-weight="400" fill="#65726d"></text>
<rect x="120" y="560" width="690" height="230" rx="20" ry="20" fill="#ffffff" stroke="#d7dfd8" stroke-width="2"/>
<rect x="120" y="560" width="690" height="16" rx="9" ry="9" fill="#8979c7"/>
<text x="148" y="625" font-family="Arial, Helvetica, sans-serif" font-size="27" font-weight="700" fill="#1e2b28">Choose door</text>
<text x="148" y="686" font-family="Arial, Helvetica, sans-serif" font-size="18" font-weight="400" fill="#65726d"></text>
<rect x="930" y="560" width="690" height="230" rx="20" ry="20" fill="#ffffff" stroke="#d7dfd8" stroke-width="2"/>
<rect x="930" y="560" width="690" height="16" rx="9" ry="9" fill="#67a7cb"/>
<text x="958" y="625" font-family="Arial, Helvetica, sans-serif" font-size="27" font-weight="700" fill="#1e2b28">Sense in context</text>
<text x="958" y="686" font-family="Arial, Helvetica, sans-serif" font-size="18" font-weight="400" fill="#65726d"></text>
<rect x="1740" y="560" width="690" height="230" rx="20" ry="20" fill="#ffffff" stroke="#d7dfd8" stroke-width="2"/>
<rect x="1740" y="560" width="690" height="16" rx="9" ry="9" fill="#59b7aa"/>
<text x="1768" y="625" font-family="Arial, Helvetica, sans-serif" font-size="27" font-weight="700" fill="#1e2b28">NeedsUserChoice -&gt; ContextCard</text>
<text x="1768" y="686" font-family="Arial, Helvetica, sans-serif" font-size="18" font-weight="400" fill="#65726d"></text>
<rect x="2550" y="560" width="690" height="230" rx="20" ry="20" fill="#ffffff" stroke="#d7dfd8" stroke-width="2"/>
<rect x="2550" y="560" width="690" height="16" rx="9" ry="9" fill="#d96d67"/>
<text x="2578" y="625" font-family="Arial, Helvetica, sans-serif" font-size="27" font-weight="700" fill="#1e2b28">Default world object</text>
<text x="2578" y="686" font-family="Arial, Helvetica, sans-serif" font-size="18" font-weight="400" fill="#65726d"></text>
<rect x="120" y="910" width="690" height="230" rx="20" ry="20" fill="#ffffff" stroke="#d7dfd8" stroke-width="2"/>
<rect x="120" y="910" width="690" height="16" rx="9" ry="9" fill="#8979c7"/>
<text x="148" y="975" font-family="Arial, Helvetica, sans-serif" font-size="27" font-weight="700" fill="#1e2b28">Confirm meaning</text>
<text x="148" y="1036" font-family="Arial, Helvetica, sans-serif" font-size="18" font-weight="400" fill="#65726d"></text>
<rect x="930" y="910" width="690" height="230" rx="20" ry="20" fill="#ffffff" stroke="#d7dfd8" stroke-width="2"/>
<rect x="930" y="910" width="690" height="16" rx="9" ry="9" fill="#67a7cb"/>
<text x="958" y="975" font-family="Arial, Helvetica, sans-serif" font-size="27" font-weight="700" fill="#1e2b28">Multi-sense clarity</text>
<text x="958" y="1036" font-family="Arial, Helvetica, sans-serif" font-size="18" font-weight="400" fill="#65726d"></text>
<rect x="1740" y="910" width="690" height="230" rx="20" ry="20" fill="#ffffff" stroke="#d7dfd8" stroke-width="2"/>
<rect x="1740" y="910" width="690" height="16" rx="9" ry="9" fill="#59b7aa"/>
<text x="1768" y="975" font-family="Arial, Helvetica, sans-serif" font-size="27" font-weight="700" fill="#1e2b28">Codex Discovery</text>
<text x="1768" y="1036" font-family="Arial, Helvetica, sans-serif" font-size="18" font-weight="400" fill="#65726d"></text>
<rect x="2550" y="910" width="690" height="230" rx="20" ry="20" fill="#ffffff" stroke="#d7dfd8" stroke-width="2"/>
<rect x="2550" y="910" width="690" height="16" rx="9" ry="9" fill="#d96d67"/>
<text x="2578" y="975" font-family="Arial, Helvetica, sans-serif" font-size="27" font-weight="700" fill="#1e2b28">SRS write / score pressure</text>
<text x="2578" y="1036" font-family="Arial, Helvetica, sans-serif" font-size="18" font-weight="400" fill="#65726d"></text>
<rect x="120" y="1260" width="690" height="230" rx="20" ry="20" fill="#ffffff" stroke="#d7dfd8" stroke-width="2"/>
<rect x="120" y="1260" width="690" height="16" rx="9" ry="9" fill="#8979c7"/>
<text x="148" y="1325" font-family="Arial, Helvetica, sans-serif" font-size="27" font-weight="700" fill="#1e2b28">Correct door</text>
<text x="148" y="1386" font-family="Arial, Helvetica, sans-serif" font-size="18" font-weight="400" fill="#65726d"></text>
<rect x="930" y="1260" width="690" height="230" rx="20" ry="20" fill="#ffffff" stroke="#d7dfd8" stroke-width="2"/>
<rect x="930" y="1260" width="690" height="16" rx="9" ry="9" fill="#67a7cb"/>
<text x="958" y="1325" font-family="Arial, Helvetica, sans-serif" font-size="27" font-weight="700" fill="#1e2b28">Error as information</text>
<text x="958" y="1386" font-family="Arial, Helvetica, sans-serif" font-size="18" font-weight="400" fill="#65726d"></text>
<rect x="1740" y="1260" width="690" height="230" rx="20" ry="20" fill="#ffffff" stroke="#d7dfd8" stroke-width="2"/>
<rect x="1740" y="1260" width="690" height="16" rx="9" ry="9" fill="#59b7aa"/>
<text x="1768" y="1325" font-family="Arial, Helvetica, sans-serif" font-size="27" font-weight="700" fill="#1e2b28">Calm Retry</text>
<text x="1768" y="1386" font-family="Arial, Helvetica, sans-serif" font-size="18" font-weight="400" fill="#65726d"></text>
<rect x="2550" y="1260" width="690" height="230" rx="20" ry="20" fill="#ffffff" stroke="#d7dfd8" stroke-width="2"/>
<rect x="2550" y="1260" width="690" height="16" rx="9" ry="9" fill="#d96d67"/>
<text x="2578" y="1325" font-family="Arial, Helvetica, sans-serif" font-size="27" font-weight="700" fill="#1e2b28">Shame / world loss</text>
<text x="2578" y="1386" font-family="Arial, Helvetica, sans-serif" font-size="18" font-weight="400" fill="#65726d"></text>
<rect x="120" y="1610" width="690" height="230" rx="20" ry="20" fill="#ffffff" stroke="#d7dfd8" stroke-width="2"/>
<rect x="120" y="1610" width="690" height="16" rx="9" ry="9" fill="#8979c7"/>
<text x="148" y="1675" font-family="Arial, Helvetica, sans-serif" font-size="27" font-weight="700" fill="#1e2b28">View World Hint</text>
<text x="148" y="1736" font-family="Arial, Helvetica, sans-serif" font-size="18" font-weight="400" fill="#65726d"></text>
<rect x="930" y="1610" width="690" height="230" rx="20" ry="20" fill="#ffffff" stroke="#d7dfd8" stroke-width="2"/>
<rect x="930" y="1610" width="690" height="16" rx="9" ry="9" fill="#67a7cb"/>
<text x="958" y="1675" font-family="Arial, Helvetica, sans-serif" font-size="27" font-weight="700" fill="#1e2b28">World as possibility</text>
<text x="958" y="1736" font-family="Arial, Helvetica, sans-serif" font-size="18" font-weight="400" fill="#65726d"></text>
<rect x="1740" y="1610" width="690" height="230" rx="20" ry="20" fill="#ffffff" stroke="#d7dfd8" stroke-width="2"/>
<rect x="1740" y="1610" width="690" height="16" rx="9" ry="9" fill="#59b7aa"/>
<text x="1768" y="1675" font-family="Arial, Helvetica, sans-serif" font-size="27" font-weight="700" fill="#1e2b28">Preview/fallback</text>
<text x="1768" y="1736" font-family="Arial, Helvetica, sans-serif" font-size="18" font-weight="400" fill="#65726d"></text>
<rect x="2550" y="1610" width="690" height="230" rx="20" ry="20" fill="#ffffff" stroke="#d7dfd8" stroke-width="2"/>
<rect x="2550" y="1610" width="690" height="16" rx="9" ry="9" fill="#d96d67"/>
<text x="2578" y="1675" font-family="Arial, Helvetica, sans-serif" font-size="27" font-weight="700" fill="#1e2b28">Placement / BuildState</text>
<text x="2578" y="1736" font-family="Arial, Helvetica, sans-serif" font-size="18" font-weight="400" fill="#65726d"></text>
<rect x="120" y="1960" width="690" height="230" rx="20" ry="20" fill="#ffffff" stroke="#d7dfd8" stroke-width="2"/>
<rect x="120" y="1960" width="690" height="16" rx="9" ry="9" fill="#8979c7"/>
<text x="148" y="2025" font-family="Arial, Helvetica, sans-serif" font-size="27" font-weight="700" fill="#1e2b28">End round</text>
<text x="148" y="2086" font-family="Arial, Helvetica, sans-serif" font-size="18" font-weight="400" fill="#65726d"></text>
<rect x="930" y="1960" width="690" height="230" rx="20" ry="20" fill="#ffffff" stroke="#d7dfd8" stroke-width="2"/>
<rect x="930" y="1960" width="690" height="16" rx="9" ry="9" fill="#67a7cb"/>
<text x="958" y="2025" font-family="Arial, Helvetica, sans-serif" font-size="27" font-weight="700" fill="#1e2b28">Voluntary flow</text>
<text x="958" y="2086" font-family="Arial, Helvetica, sans-serif" font-size="18" font-weight="400" fill="#65726d"></text>
<rect x="1740" y="1960" width="690" height="230" rx="20" ry="20" fill="#ffffff" stroke="#d7dfd8" stroke-width="2"/>
<rect x="1740" y="1960" width="690" height="16" rx="9" ry="9" fill="#59b7aa"/>
<text x="1768" y="2025" font-family="Arial, Helvetica, sans-serif" font-size="27" font-weight="700" fill="#1e2b28">Later / end</text>
<text x="1768" y="2086" font-family="Arial, Helvetica, sans-serif" font-size="18" font-weight="400" fill="#65726d"></text>
<rect x="2550" y="1960" width="690" height="230" rx="20" ry="20" fill="#ffffff" stroke="#d7dfd8" stroke-width="2"/>
<rect x="2550" y="1960" width="690" height="16" rx="9" ry="9" fill="#d96d67"/>
<text x="2578" y="2025" font-family="Arial, Helvetica, sans-serif" font-size="27" font-weight="700" fill="#1e2b28">Forced streak / timer</text>
<text x="2578" y="2086" font-family="Arial, Helvetica, sans-serif" font-size="18" font-weight="400" fill="#65726d"></text>
<rect x="510" y="2360" width="2380" height="230" rx="20" ry="20" fill="#ffffff" stroke="#d7dfd8" stroke-width="2"/>
<rect x="510" y="2360" width="2380" height="16" rx="9" ry="9" fill="#69ad78"/>
<text x="538" y="2429" font-family="Arial, Helvetica, sans-serif" font-size="31" font-weight="700" fill="#1e2b28">Mapping rule</text>
<text x="538" y="2488" font-family="Arial, Helvetica, sans-serif" font-size="20" font-weight="400" fill="#65726d">A later implementation may not create a task unless it can fill all four columns: play action, learning value, safe outcome and blocked trap.</text>
</svg>