<svg xmlns="http://www.w3.org/2000/svg" width="1672" height="941" viewBox="0 0 1672 941">
<title>Florenz Parcel Clearance Buffers</title>
<desc>No-build clearance buffer around each parcel.</desc>
<rect width="100%" height="100%" fill="#06101d"/>
<polygon id="P01-buffer" points="426.9,225.7 403.2,185.7 324.2,198.4 302.7,248.0 367.6,277.8 417.7,265.6" fill="#ff5a5a" fill-opacity="0.16" stroke="#ff6a6a" stroke-width="3" stroke-dasharray="8 6"/>
<polygon id="P01-inner" points="412.0,228.0 406.0,254.0 369.0,263.0 321.0,241.0 334.0,211.0 396.0,201.0" fill="#06101d" stroke="#ffd36c" stroke-width="2"/>
<text x="369.9" y="237.8" fill="#ffd36c" font-family="Arial" font-size="16" font-weight="700" text-anchor="middle">P01</text>
<polygon id="P02-buffer" points="474.8,222.9 471.7,270.2 503.0,312.0 580.4,312.0 608.1,259.8 550.1,217.7" fill="#ff5a5a" fill-opacity="0.16" stroke="#ff6a6a" stroke-width="3" stroke-dasharray="8 6"/>
<polygon id="P02-inner" points="488.0,236.0 546.0,232.0 590.0,264.0 572.0,298.0 510.0,298.0 486.0,266.0" fill="#06101d" stroke="#ffd36c" stroke-width="2"/>
<text x="534.6" y="271.9" fill="#ffd36c" font-family="Arial" font-size="16" font-weight="700" text-anchor="middle">P02</text>
<polygon id="P03-buffer" points="721.0,176.4 721.0,210.1 755.2,241.8 779.3,247.4 833.0,232.7 833.0,203.4 807.9,158.1 752.9,150.3" fill="#ff5a5a" fill-opacity="0.16" stroke="#ff6a6a" stroke-width="3" stroke-dasharray="8 6"/>
<polygon id="P03-inner" points="735.0,183.0 757.0,165.0 799.0,171.0 819.0,207.0 819.0,222.0 779.0,233.0 762.0,229.0 735.0,204.0" fill="#06101d" stroke="#ffd36c" stroke-width="2"/>
<text x="776.4" y="205.1" fill="#ffd36c" font-family="Arial" font-size="16" font-weight="700" text-anchor="middle">P03</text>
<polygon id="P04-buffer" points="860.1,132.4 855.7,187.2 881.5,232.3 963.8,240.0 983.8,178.6 945.5,136.3" fill="#ff5a5a" fill-opacity="0.16" stroke="#ff6a6a" stroke-width="3" stroke-dasharray="8 6"/>
<polygon id="P04-inner" points="873.0,147.0 939.0,150.0 968.0,182.0 954.0,225.0 890.0,219.0 870.0,184.0" fill="#06101d" stroke="#ffd36c" stroke-width="2"/>
<text x="917.2" y="191.0" fill="#ffd36c" font-family="Arial" font-size="16" font-weight="700" text-anchor="middle">P04</text>
<polygon id="P05-buffer" points="1067.1,292.2 1114.8,331.0 1181.1,344.7 1212.5,328.2 1209.5,277.4 1166.3,253.9 1109.6,256.2" fill="#ff5a5a" fill-opacity="0.16" stroke="#ff6a6a" stroke-width="3" stroke-dasharray="8 6"/>
<polygon id="P05-inner" points="1089.0,292.0 1115.0,270.0 1163.0,268.0 1196.0,286.0 1198.0,320.0 1179.0,330.0 1121.0,318.0" fill="#06101d" stroke="#ffd36c" stroke-width="2"/>
<text x="1149.7" y="303.2" fill="#ffd36c" font-family="Arial" font-size="16" font-weight="700" text-anchor="middle">P05</text>
<polygon id="P06-buffer" points="291.4,355.4 254.5,319.8 211.2,321.2 171.1,359.8 197.5,401.8 248.5,410.3 280.7,402.6" fill="#ff5a5a" fill-opacity="0.16" stroke="#ff6a6a" stroke-width="3" stroke-dasharray="8 6"/>
<polygon id="P06-inner" points="276.0,360.0 269.0,391.0 248.0,396.0 206.0,389.0 189.0,362.0 217.0,335.0 249.0,334.0" fill="#06101d" stroke="#ffd36c" stroke-width="2"/>
<text x="234.8" y="371.5" fill="#ffd36c" font-family="Arial" font-size="16" font-weight="700" text-anchor="middle">P06</text>
<polygon id="P07-buffer" points="501.0,563.2 465.8,528.0 412.4,528.0 380.0,558.9 396.1,608.9 432.0,617.1 476.0,613.3" fill="#ff5a5a" fill-opacity="0.16" stroke="#ff6a6a" stroke-width="3" stroke-dasharray="8 6"/>
<polygon id="P07-inner" points="484.0,566.0 467.0,600.0 433.0,603.0 407.0,597.0 396.0,563.0 418.0,542.0 460.0,542.0" fill="#06101d" stroke="#ffd36c" stroke-width="2"/>
<text x="439.1" y="578.0" fill="#ffd36c" font-family="Arial" font-size="16" font-weight="700" text-anchor="middle">P07</text>
<polygon id="P08-buffer" points="462.3,478.7 427.6,442.6 365.2,446.4 330.0,487.8 373.6,531.4 443.9,526.3" fill="#ff5a5a" fill-opacity="0.16" stroke="#ff6a6a" stroke-width="3" stroke-dasharray="8 6"/>
<polygon id="P08-inner" points="446.0,482.0 434.0,513.0 379.0,517.0 349.0,487.0 372.0,460.0 422.0,457.0" fill="#06101d" stroke="#b8e9ac" stroke-width="2"/>
<text x="399.5" y="493.0" fill="#b8e9ac" font-family="Arial" font-size="16" font-weight="700" text-anchor="middle">P08</text>
<polygon id="P09-buffer" points="560.7,480.1 594.0,525.1 664.4,523.9 696.6,477.9 654.2,439.9 588.7,441.1" fill="#ff5a5a" fill-opacity="0.16" stroke="#ff6a6a" stroke-width="3" stroke-dasharray="8 6"/>
<polygon id="P09-inner" points="578.0,480.0 596.0,455.0 649.0,454.0 678.0,480.0 657.0,510.0 601.0,511.0" fill="#06101d" stroke="#b8e9ac" stroke-width="2"/>
<text x="627.1" y="488.4" fill="#b8e9ac" font-family="Arial" font-size="16" font-weight="700" text-anchor="middle">P09</text>
<polygon id="P10-buffer" points="821.3,575.0 784.9,541.5 729.7,546.7 698.1,597.9 752.5,635.6 810.8,627.5" fill="#ff5a5a" fill-opacity="0.16" stroke="#ff6a6a" stroke-width="3" stroke-dasharray="8 6"/>
<polygon id="P10-inner" points="806.0,580.0 799.0,615.0 756.0,621.0 717.0,594.0 738.0,560.0 780.0,556.0" fill="#06101d" stroke="#b8e9ac" stroke-width="2"/>
<text x="764.5" y="594.4" fill="#b8e9ac" font-family="Arial" font-size="16" font-weight="700" text-anchor="middle">P10</text>
<polygon id="P11-buffer" points="947.4,566.9 912.1,534.6 873.7,530.5 830.0,566.0 842.9,611.0 887.4,620.2 913.0,617.2" fill="#ff5a5a" fill-opacity="0.16" stroke="#ff6a6a" stroke-width="3" stroke-dasharray="8 6"/>
<polygon id="P11-inner" points="929.0,569.0 905.0,604.0 888.0,606.0 854.0,599.0 846.0,571.0 878.0,545.0 906.0,548.0" fill="#06101d" stroke="#b8e9ac" stroke-width="2"/>
<text x="886.3" y="582.0" fill="#b8e9ac" font-family="Arial" font-size="16" font-weight="700" text-anchor="middle">P11</text>
<polygon id="P12-buffer" points="1074.9,466.5 1009.3,470.2 988.1,484.9 980.8,530.4 1022.9,560.3 1067.0,557.6 1101.9,514.4" fill="#ff5a5a" fill-opacity="0.16" stroke="#ff6a6a" stroke-width="3" stroke-dasharray="8 6"/>
<polygon id="P12-inner" points="1067.0,481.0 1085.0,513.0 1060.0,544.0 1027.0,546.0 996.0,524.0 1001.0,493.0 1014.0,484.0" fill="#06101d" stroke="#bf62dc" stroke-width="2"/>
<text x="1039.3" y="518.3" fill="#bf62dc" font-family="Arial" font-size="16" font-weight="700" text-anchor="middle">P12</text>
<polygon id="P13-buffer" points="1087.0,388.3 1118.0,457.2 1180.6,455.8 1202.1,414.5 1177.8,374.5 1117.0,361.9" fill="#ff5a5a" fill-opacity="0.16" stroke="#ff6a6a" stroke-width="3" stroke-dasharray="8 6"/>
<polygon id="P13-inner" points="1104.0,392.0 1121.0,377.0 1169.0,387.0 1186.0,415.0 1172.0,442.0 1127.0,443.0" fill="#06101d" stroke="#bf62dc" stroke-width="2"/>
<text x="1145.2" y="417.0" fill="#bf62dc" font-family="Arial" font-size="16" font-weight="700" text-anchor="middle">P13</text>
<polygon id="P14-buffer" points="1125.1,605.4 1095.0,563.8 1033.7,565.2 1004.7,633.2 1064.7,659.7 1104.9,650.0" fill="#ff5a5a" fill-opacity="0.16" stroke="#ff6a6a" stroke-width="3" stroke-dasharray="8 6"/>
<polygon id="P14-inner" points="1109.0,607.0 1095.0,638.0 1066.0,645.0 1023.0,626.0 1043.0,579.0 1088.0,578.0" fill="#06101d" stroke="#bf62dc" stroke-width="2"/>
<text x="1067.2" y="616.5" fill="#bf62dc" font-family="Arial" font-size="16" font-weight="700" text-anchor="middle">P14</text>
</svg>