<svg xmlns="http://www.w3.org/2000/svg" width="1600" height="940" viewBox="0 0 1600 940">
  <defs>
    <filter id="softGlow" x="-20%" y="-20%" width="140%" height="140%">
      <feGaussianBlur stdDeviation="5" result="blur"/>
      <feMerge><feMergeNode in="blur"/><feMergeNode in="SourceGraphic"/></feMerge>
    </filter>
    <marker id="arrow" markerWidth="16" markerHeight="16" refX="12" refY="8" orient="auto">
      <path d="M 0 0 L 16 8 L 0 16 z" fill="#65e8ff"/>
    </marker>
  </defs>
  <rect width="1600" height="940" fill="#07131f"/>
  <rect x="20" y="20" width="1560" height="900" rx="28" fill="#091827" stroke="#1bb7d6" stroke-width="2"/>
  <text x="54" y="78" font-size="42" font-weight="800" fill="#f3fbff">Firenze Area-Specification Planning Extraction Review v1</text>
  <text x="56" y="122" font-size="23" font-weight="700" fill="#79f4df">documentation_only | planning review | runtime/json/flutter blocked</text>
  <text x="56" y="158" font-size="21" fill="#c8d7e2">Tight review of 428: source, registries, topology, safety and next review gate.</text>

<rect x="44" y="190" width="268" height="370" rx="22" fill="#123146" stroke="#3be4ff" stroke-width="1.5" opacity="0.96"/>
<text x="68" y="242" font-size="26" font-weight="800" fill="#ffffff">1. 428 Extraction</text>
<text x="68" y="295" font-size="22" font-weight="500" fill="#d9f6ff">Source metadata</text>
<text x="68" y="333" font-size="22" font-weight="500" fill="#d9f6ff">Layer registries</text>
<text x="68" y="371" font-size="22" font-weight="500" fill="#d9f6ff">Object registries</text>
<text x="68" y="409" font-size="22" font-weight="500" fill="#d9f6ff">Topology summary</text>
<rect x="352" y="190" width="268" height="370" rx="22" fill="#142f3f" stroke="#3be4ff" stroke-width="1.5" opacity="0.96"/>
<text x="376" y="242" font-size="26" font-weight="800" fill="#ffffff">2. Review Checks</text>
<text x="376" y="295" font-size="22" font-weight="500" fill="#d9f6ff">SHA and viewBox</text>
<text x="376" y="333" font-size="22" font-weight="500" fill="#d9f6ff">Counts 12/12</text>
<text x="376" y="371" font-size="22" font-weight="500" fill="#d9f6ff">Topology 221/221</text>
<text x="376" y="409" font-size="22" font-weight="500" fill="#d9f6ff">Safety scope</text>
<rect x="660" y="190" width="268" height="370" rx="22" fill="#113b33" stroke="#3be4ff" stroke-width="1.5" opacity="0.96"/>
<text x="684" y="242" font-size="26" font-weight="800" fill="#ffffff">3. Decision</text>
<text x="684" y="295" font-size="22" font-weight="500" fill="#d9f6ff">Planning-only</text>
<text x="684" y="333" font-size="22" font-weight="500" fill="#d9f6ff">Extraction</text>
<text x="684" y="371" font-size="22" font-weight="500" fill="#d9f6ff">PASS</text>
<rect x="684" y="435" width="130" height="50" rx="18" fill="#41f0b7" opacity="0.18" stroke="#41f0b7"/>
<text x="712" y="469" font-size="26" font-weight="900" fill="#8cffdd">PASS</text>
<rect x="968" y="190" width="268" height="370" rx="22" fill="#3a1830" stroke="#3be4ff" stroke-width="1.5" opacity="0.96"/>
<text x="992" y="242" font-size="26" font-weight="800" fill="#ffffff">4. Runtime Gate</text>
<text x="992" y="295" font-size="22" font-weight="500" fill="#d9f6ff">Runtime NO</text>
<text x="992" y="333" font-size="22" font-weight="500" fill="#d9f6ff">JSON/YAML NO</text>
<text x="992" y="371" font-size="22" font-weight="500" fill="#d9f6ff">Flutter NO</text>
<text x="992" y="409" font-size="22" font-weight="500" fill="#d9f6ff">Collision NO</text>
<rect x="1276" y="190" width="280" height="370" rx="22" fill="#2f2b14" stroke="#3be4ff" stroke-width="1.5" opacity="0.96"/>
<text x="1300" y="242" font-size="26" font-weight="800" fill="#ffffff">5. Next Slice</text>
<text x="1300" y="295" font-size="22" font-weight="500" fill="#d9f6ff">Metrics and</text>
<text x="1300" y="333" font-size="22" font-weight="500" fill="#d9f6ff">Reachability</text>
<text x="1300" y="371" font-size="22" font-weight="500" fill="#d9f6ff">Review Plan</text>
<text x="1300" y="409" font-size="22" font-weight="500" fill="#d9f6ff">Still docs-only</text>
<line x1="316" y1="375" x2="346" y2="375" stroke="#65e8ff" stroke-width="4" marker-end="url(#arrow)" filter="url(#softGlow)"/>
<line x1="624" y1="375" x2="654" y2="375" stroke="#65e8ff" stroke-width="4" marker-end="url(#arrow)" filter="url(#softGlow)"/>
<line x1="932" y1="375" x2="962" y2="375" stroke="#65e8ff" stroke-width="4" marker-end="url(#arrow)" filter="url(#softGlow)"/>
<line x1="1240" y1="375" x2="1270" y2="375" stroke="#65e8ff" stroke-width="4" marker-end="url(#arrow)" filter="url(#softGlow)"/>
<rect x="44" y="610" width="1512" height="245" rx="22" fill="#0b2231" stroke="#2bcce7" stroke-width="1.4"/>
<text x="76" y="660" font-size="28" font-weight="800" fill="#ffffff">Review result</text>
<text x="76" y="705" font-size="23" font-weight="500" fill="#d9f6ff">Source SHA: PASS</text>
<text x="76" y="741" font-size="23" font-weight="500" fill="#d9f6ff">Registry counts: PASS</text>
<text x="76" y="777" font-size="23" font-weight="500" fill="#d9f6ff">Topology: PASS</text>
<text x="76" y="813" font-size="23" font-weight="500" fill="#d9f6ff">Planning-only safety: PASS</text>
<line x1="455" y1="635" x2="455" y2="830" stroke="#4e9db1" stroke-width="1"/>
<text x="492" y="660" font-size="28" font-weight="800" fill="#ffffff">Locked outputs</text>
<text x="492" y="705" font-size="23" font-weight="500" fill="#ffd8e8">No runtime data</text>
<text x="492" y="741" font-size="23" font-weight="500" fill="#ffd8e8">No JSON/YAML</text>
<text x="492" y="777" font-size="23" font-weight="500" fill="#ffd8e8">No Flutter preview</text>
<text x="492" y="813" font-size="23" font-weight="500" fill="#ffd8e8">No collision/pathfinding</text>
<line x1="910" y1="635" x2="910" y2="830" stroke="#4e9db1" stroke-width="1"/>
<text x="948" y="660" font-size="28" font-weight="800" fill="#ffffff">Recommended next slice</text>
<text x="948" y="705" font-size="23" font-weight="500" fill="#fff4c5">Firenze Area-Specification</text>
<text x="948" y="741" font-size="23" font-weight="500" fill="#fff4c5">Metrics and Reachability</text>
<text x="948" y="777" font-size="23" font-weight="500" fill="#fff4c5">Review Plan</text>
<text x="948" y="813" font-size="23" font-weight="500" fill="#fff4c5">Still planning-only</text>
<text x="56" y="895" font-size="18" fill="#8fb3c1">Status: planning review only. This diagram is documentation, not an asset, app screen or runtime map.</text>
</svg>