<svg xmlns="http://www.w3.org/2000/svg" width="3100" height="2250" viewBox="0 0 3100 2250">
<rect width="3100" height="2250" fill="#f8f9f4"/>
<rect x="48" y="38" width="3004" height="2174" rx="30" ry="30" fill="#f8f9f4" stroke="#d8e0d8" stroke-width="2"/>
<text x="92" y="148" font-family="Arial, Helvetica, sans-serif" font-size="62" font-weight="700" fill="#1f2c2a">Clash Risk Translation To Talvori</text>
<text x="92" y="204" font-family="Arial, Helvetica, sans-serif" font-size="30" font-weight="400" fill="#66736d">Strong progression patterns become Talvori stop rules before they become features.</text>
<line x1="92" y1="2138" x2="3008" y2="2138" stroke="#d8e0d8" stroke-width="2" stroke-linecap="round"/>
<text x="92" y="2190" font-family="Arial, Helvetica, sans-serif" font-size="18" font-weight="400" fill="#66736d">documentation research preview only / no implementation / no economy / no timers / no social or competition release / no BuildState / no frame_started</text>
<rect x="120" y="330" width="690" height="265" rx="20" ry="20" fill="#ffffff" stroke="#d8e0d8" stroke-width="2"/>
<rect x="120" y="330" width="690" height="16" rx="9" ry="9" fill="#d86f68"/>
<text x="148" y="402" font-family="Arial, Helvetica, sans-serif" font-size="34" font-weight="700" fill="#1f2c2a">Timer</text>
<text x="148" y="456" font-family="Arial, Helvetica, sans-serif" font-size="22" font-weight="400" fill="#66736d">Creates return pressure and waiting loops.</text>
<line x1="860" y1="464" x2="980" y2="464" stroke="#95a59f" stroke-width="6" stroke-linecap="round"/>
<polygon points="980,464 952,446 952,482" fill="#95a59f"/>
<rect x="1020" y="330" width="1960" height="265" rx="20" ry="20" fill="#ffffff" stroke="#d8e0d8" stroke-width="2"/>
<rect x="1020" y="330" width="1960" height="16" rx="9" ry="9" fill="#68ad7a"/>
<text x="1048" y="402" font-family="Arial, Helvetica, sans-serif" font-size="34" font-weight="700" fill="#1f2c2a">Talvori translation</text>
<text x="1048" y="456" font-family="Arial, Helvetica, sans-serif" font-size="22" font-weight="400" fill="#66736d">No timer, upgrade time or FOMO in MVP.</text>
<rect x="120" y="650" width="690" height="265" rx="20" ry="20" fill="#ffffff" stroke="#d8e0d8" stroke-width="2"/>
<rect x="120" y="650" width="690" height="16" rx="9" ry="9" fill="#d86f68"/>
<text x="148" y="722" font-family="Arial, Helvetica, sans-serif" font-size="34" font-weight="700" fill="#1f2c2a">Clan war</text>
<text x="148" y="776" font-family="Arial, Helvetica, sans-serif" font-size="22" font-weight="400" fill="#66736d">Creates team goal and possible blame.</text>
<line x1="860" y1="784" x2="980" y2="784" stroke="#95a59f" stroke-width="6" stroke-linecap="round"/>
<polygon points="980,784 952,766 952,802" fill="#95a59f"/>
<rect x="1020" y="650" width="1960" height="265" rx="20" ry="20" fill="#ffffff" stroke="#d8e0d8" stroke-width="2"/>
<rect x="1020" y="650" width="1960" height="16" rx="9" ry="9" fill="#68ad7a"/>
<text x="1048" y="722" font-family="Arial, Helvetica, sans-serif" font-size="34" font-weight="700" fill="#1f2c2a">Talvori translation</text>
<text x="1048" y="776" font-family="Arial, Helvetica, sans-serif" font-size="22" font-weight="400" fill="#66736d">No war, raid, team duty or group guilt.</text>
<rect x="120" y="970" width="690" height="265" rx="20" ry="20" fill="#ffffff" stroke="#d8e0d8" stroke-width="2"/>
<rect x="120" y="970" width="690" height="16" rx="9" ry="9" fill="#d86f68"/>
<text x="148" y="1042" font-family="Arial, Helvetica, sans-serif" font-size="34" font-weight="700" fill="#1f2c2a">Leaderboard</text>
<text x="148" y="1096" font-family="Arial, Helvetica, sans-serif" font-size="22" font-weight="400" fill="#66736d">Creates rank motivation and exposure.</text>
<line x1="860" y1="1104" x2="980" y2="1104" stroke="#95a59f" stroke-width="6" stroke-linecap="round"/>
<polygon points="980,1104 952,1086 952,1122" fill="#95a59f"/>
<rect x="1020" y="970" width="1960" height="265" rx="20" ry="20" fill="#ffffff" stroke="#d8e0d8" stroke-width="2"/>
<rect x="1020" y="970" width="1960" height="16" rx="9" ry="9" fill="#68ad7a"/>
<text x="1048" y="1042" font-family="Arial, Helvetica, sans-serif" font-size="34" font-weight="700" fill="#1f2c2a">Talvori translation</text>
<text x="1048" y="1096" font-family="Arial, Helvetica, sans-serif" font-size="22" font-weight="400" fill="#66736d">No ranking or league before fairness gate.</text>
<rect x="120" y="1290" width="690" height="265" rx="20" ry="20" fill="#ffffff" stroke="#d8e0d8" stroke-width="2"/>
<rect x="120" y="1290" width="690" height="16" rx="9" ry="9" fill="#d86f68"/>
<text x="148" y="1362" font-family="Arial, Helvetica, sans-serif" font-size="34" font-weight="700" fill="#1f2c2a">Resource scarcity</text>
<text x="148" y="1416" font-family="Arial, Helvetica, sans-serif" font-size="22" font-weight="400" fill="#66736d">Creates planning and grind.</text>
<line x1="860" y1="1424" x2="980" y2="1424" stroke="#95a59f" stroke-width="6" stroke-linecap="round"/>
<polygon points="980,1424 952,1406 952,1442" fill="#95a59f"/>
<rect x="1020" y="1290" width="1960" height="265" rx="20" ry="20" fill="#ffffff" stroke="#d8e0d8" stroke-width="2"/>
<rect x="1020" y="1290" width="1960" height="16" rx="9" ry="9" fill="#68ad7a"/>
<text x="1048" y="1362" font-family="Arial, Helvetica, sans-serif" font-size="34" font-weight="700" fill="#1f2c2a">Talvori translation</text>
<text x="1048" y="1416" font-family="Arial, Helvetica, sans-serif" font-size="22" font-weight="400" fill="#66736d">No resource bottleneck as learning brake.</text>
<rect x="120" y="1610" width="690" height="265" rx="20" ry="20" fill="#ffffff" stroke="#d8e0d8" stroke-width="2"/>
<rect x="120" y="1610" width="690" height="16" rx="9" ry="9" fill="#d86f68"/>
<text x="148" y="1682" font-family="Arial, Helvetica, sans-serif" font-size="34" font-weight="700" fill="#1f2c2a">Pay-to-progress</text>
<text x="148" y="1736" font-family="Arial, Helvetica, sans-serif" font-size="22" font-weight="400" fill="#66736d">Accelerates progression through purchases.</text>
<line x1="860" y1="1744" x2="980" y2="1744" stroke="#95a59f" stroke-width="6" stroke-linecap="round"/>
<polygon points="980,1744 952,1726 952,1762" fill="#95a59f"/>
<rect x="1020" y="1610" width="1960" height="265" rx="20" ry="20" fill="#ffffff" stroke="#d8e0d8" stroke-width="2"/>
<rect x="1020" y="1610" width="1960" height="16" rx="9" ry="9" fill="#68ad7a"/>
<text x="1048" y="1682" font-family="Arial, Helvetica, sans-serif" font-size="34" font-weight="700" fill="#1f2c2a">Talvori translation</text>
<text x="1048" y="1736" font-family="Arial, Helvetica, sans-serif" font-size="22" font-weight="400" fill="#66736d">No money-based progress in first MVP.</text>
</svg>