<svg xmlns="http://www.w3.org/2000/svg" width="3400" height="2550" viewBox="0 0 3400 2550">
<rect width="3400" height="2550" fill="#f8f9f4"/>
<rect x="48" y="38" width="3304" height="2474" rx="30" ry="30" fill="#f8f9f4" stroke="#d6ded7" stroke-width="2"/>
<text x="92" y="148" font-family="Arial, Helvetica, sans-serif" font-size="62" font-weight="700" fill="#1e2b28">Isolated Launch Boundary</text>
<text x="92" y="203" font-family="Arial, Helvetica, sans-serif" font-size="29" font-weight="400" fill="#64736d">The launch target may make the widget visible, but nothing productive may attach to it.</text>
<line x1="92" y1="2438" x2="3308" y2="2438" stroke="#d6ded7" stroke-width="2" stroke-linecap="round"/>
<text x="92" y="2490" font-family="Arial, Helvetica, sans-serif" font-size="18" font-weight="400" fill="#64736d">M16-AP launch gate only / no code / no route / no app integration / no persistence / no BuildState / no frame_started</text>
<rect x="150" y="410" width="630" height="410" rx="20" ry="20" fill="#ffffff" stroke="#d6ded7" stroke-width="2"/>
<rect x="150" y="410" width="630" height="16" rx="9" ry="9" fill="#67a7cb"/>
<text x="180" y="479" font-family="Arial, Helvetica, sans-serif" font-size="31" font-weight="700" fill="#1e2b28">Existing widget</text>
<text x="180" y="538" font-family="Arial, Helvetica, sans-serif" font-size="20" font-weight="400" fill="#64736d">BankMeaningPuzzlePreview</text>
<text x="180" y="565" font-family="Arial, Helvetica, sans-serif" font-size="20" font-weight="400" fill="#64736d">Already isolated</text>
<text x="180" y="592" font-family="Arial, Helvetica, sans-serif" font-size="20" font-weight="400" fill="#64736d">Material only</text>
<line x1="790" y1="610" x2="930" y2="610" stroke="#8fa19a" stroke-width="6" stroke-linecap="round"/>
<polygon points="930,610 902,592 902,628" fill="#8fa19a"/>
<rect x="950" y="410" width="630" height="410" rx="20" ry="20" fill="#ffffff" stroke="#d6ded7" stroke-width="2"/>
<rect x="950" y="410" width="630" height="16" rx="9" ry="9" fill="#58b8aa"/>
<text x="980" y="479" font-family="Arial, Helvetica, sans-serif" font-size="31" font-weight="700" fill="#1e2b28">Future local main</text>
<text x="980" y="538" font-family="Arial, Helvetica, sans-serif" font-size="20" font-weight="400" fill="#64736d">Widgets binding</text>
<text x="980" y="565" font-family="Arial, Helvetica, sans-serif" font-size="20" font-weight="400" fill="#64736d">MaterialApp home</text>
<text x="980" y="592" font-family="Arial, Helvetica, sans-serif" font-size="20" font-weight="400" fill="#64736d">Manual flutter run -t</text>
<line x1="1590" y1="610" x2="1730" y2="610" stroke="#8fa19a" stroke-width="6" stroke-linecap="round"/>
<polygon points="1730,610 1702,592 1702,628" fill="#8fa19a"/>
<rect x="1750" y="410" width="630" height="410" rx="20" ry="20" fill="#ffffff" stroke="#d6ded7" stroke-width="2"/>
<rect x="1750" y="410" width="630" height="16" rx="9" ry="9" fill="#69ad78"/>
<text x="1780" y="479" font-family="Arial, Helvetica, sans-serif" font-size="31" font-weight="700" fill="#1e2b28">Visible preview</text>
<text x="1780" y="538" font-family="Arial, Helvetica, sans-serif" font-size="20" font-weight="400" fill="#64736d">Scene, choices, Calm Retry</text>
<text x="1780" y="565" font-family="Arial, Helvetica, sans-serif" font-size="20" font-weight="400" fill="#64736d">Safe exits, guardrails</text>
<line x1="2390" y1="610" x2="2530" y2="610" stroke="#8fa19a" stroke-width="6" stroke-linecap="round"/>
<polygon points="2530,610 2502,592 2502,628" fill="#8fa19a"/>
<rect x="2550" y="410" width="630" height="410" rx="20" ry="20" fill="#ffffff" stroke="#d6ded7" stroke-width="2"/>
<rect x="2550" y="410" width="630" height="16" rx="9" ry="9" fill="#d96d67"/>
<text x="2580" y="479" font-family="Arial, Helvetica, sans-serif" font-size="31" font-weight="700" fill="#1e2b28">No product effect</text>
<text x="2580" y="538" font-family="Arial, Helvetica, sans-serif" font-size="20" font-weight="400" fill="#64736d">No route, no persistence</text>
<text x="2580" y="565" font-family="Arial, Helvetica, sans-serif" font-size="20" font-weight="400" fill="#64736d">No SRS, no BuildState</text>
<rect x="390" y="1160" width="1120" height="390" rx="20" ry="20" fill="#ffffff" stroke="#d6ded7" stroke-width="2"/>
<rect x="390" y="1160" width="1120" height="16" rx="9" ry="9" fill="#69ad78"/>
<text x="420" y="1229" font-family="Arial, Helvetica, sans-serif" font-size="31" font-weight="700" fill="#1e2b28">Allowed future launch</text>
<text x="420" y="1288" font-family="Arial, Helvetica, sans-serif" font-size="20" font-weight="400" fill="#64736d">Only a local preview entrypoint, not imported by the app. It starts the existing widget directly.</text>
<rect x="1890" y="1160" width="1120" height="390" rx="20" ry="20" fill="#ffffff" stroke="#d6ded7" stroke-width="2"/>
<rect x="1890" y="1160" width="1120" height="16" rx="9" ry="9" fill="#d96d67"/>
<text x="1920" y="1229" font-family="Arial, Helvetica, sans-serif" font-size="31" font-weight="700" fill="#1e2b28">Blocked boundary crossing</text>
<text x="1920" y="1288" font-family="Arial, Helvetica, sans-serif" font-size="20" font-weight="400" fill="#64736d">No Home, router, navigation, provider, data layer, assets, tests or integration hooks.</text>
<rect x="700" y="1840" width="2000" height="280" rx="20" ry="20" fill="#ffffff" stroke="#d6ded7" stroke-width="2"/>
<rect x="700" y="1840" width="2000" height="16" rx="9" ry="9" fill="#8979c7"/>
<text x="730" y="1909" font-family="Arial, Helvetica, sans-serif" font-size="31" font-weight="700" fill="#1e2b28">Gate rule</text>
<text x="730" y="1968" font-family="Arial, Helvetica, sans-serif" font-size="20" font-weight="400" fill="#64736d">If a later slice touches anything except the isolated launch file, it is no longer M16-AP-safe.</text>
</svg>