<svg xmlns="http://www.w3.org/2000/svg" width="3200" height="2350" viewBox="0 0 3200 2350">
<rect width="3200" height="2350" fill="#f8f9f4"/>
<rect x="48" y="38" width="3104" height="2274" rx="30" ry="30" fill="#f8f9f4" stroke="#d7dfd8" stroke-width="2"/>
<text x="92" y="148" font-family="Arial, Helvetica, sans-serif" font-size="62" font-weight="700" fill="#1e2b28">Game Pattern To Learning Bridge</text>
<text x="92" y="203" font-family="Arial, Helvetica, sans-serif" font-size="29" font-weight="400" fill="#65726d">Game patterns become Talvori learning moments only after safety and anti-pressure translation.</text>
<line x1="92" y1="2238" x2="3108" y2="2238" stroke="#d7dfd8" stroke-width="2" stroke-linecap="round"/>
<text x="92" y="2290" font-family="Arial, Helvetica, sans-serif" font-size="18" font-weight="400" fill="#65726d">documentation research prep only / no implementation / no app integration / no auto placement / no BuildState / no frame_started</text>
<rect x="140" y="360" width="630" height="185" rx="20" ry="20" fill="#ffffff" stroke="#d7dfd8" stroke-width="2"/>
<rect x="140" y="360" width="630" height="16" rx="9" ry="9" fill="#8979c7"/>
<text x="168" y="432" font-family="Arial, Helvetica, sans-serif" font-size="34" font-weight="700" fill="#1e2b28">Puzzle</text>
<text x="168" y="485" font-family="Arial, Helvetica, sans-serif" font-size="21" font-weight="400" fill="#65726d">solve a pattern</text>
<rect x="140" y="620" width="630" height="185" rx="20" ry="20" fill="#ffffff" stroke="#d7dfd8" stroke-width="2"/>
<rect x="140" y="620" width="630" height="16" rx="9" ry="9" fill="#8979c7"/>
<text x="168" y="692" font-family="Arial, Helvetica, sans-serif" font-size="34" font-weight="700" fill="#1e2b28">Explorer path</text>
<text x="168" y="745" font-family="Arial, Helvetica, sans-serif" font-size="21" font-weight="400" fill="#65726d">find where meaning fits</text>
<rect x="140" y="880" width="630" height="185" rx="20" ry="20" fill="#ffffff" stroke="#d7dfd8" stroke-width="2"/>
<rect x="140" y="880" width="630" height="16" rx="9" ry="9" fill="#8979c7"/>
<text x="168" y="952" font-family="Arial, Helvetica, sans-serif" font-size="34" font-weight="700" fill="#1e2b28">Container hunt</text>
<text x="168" y="1005" font-family="Arial, Helvetica, sans-serif" font-size="21" font-weight="400" fill="#65726d">locate a small object</text>
<rect x="140" y="1140" width="630" height="185" rx="20" ry="20" fill="#ffffff" stroke="#d7dfd8" stroke-width="2"/>
<rect x="140" y="1140" width="630" height="16" rx="9" ry="9" fill="#8979c7"/>
<text x="168" y="1212" font-family="Arial, Helvetica, sans-serif" font-size="34" font-weight="700" fill="#1e2b28">Action beat</text>
<text x="168" y="1265" font-family="Arial, Helvetica, sans-serif" font-size="21" font-weight="400" fill="#65726d">perform or imagine an action</text>
<rect x="140" y="1400" width="630" height="185" rx="20" ry="20" fill="#ffffff" stroke="#d7dfd8" stroke-width="2"/>
<rect x="140" y="1400" width="630" height="16" rx="9" ry="9" fill="#8979c7"/>
<text x="168" y="1472" font-family="Arial, Helvetica, sans-serif" font-size="34" font-weight="700" fill="#1e2b28">Collection</text>
<text x="168" y="1525" font-family="Arial, Helvetica, sans-serif" font-size="21" font-weight="400" fill="#65726d">discover a codex entry</text>
<rect x="2430" y="360" width="630" height="185" rx="20" ry="20" fill="#ffffff" stroke="#d7dfd8" stroke-width="2"/>
<rect x="2430" y="360" width="630" height="16" rx="9" ry="9" fill="#69ad78"/>
<text x="2458" y="432" font-family="Arial, Helvetica, sans-serif" font-size="34" font-weight="700" fill="#1e2b28">Sense</text>
<text x="2458" y="485" font-family="Arial, Helvetica, sans-serif" font-size="21" font-weight="400" fill="#65726d">understand meaning</text>
<rect x="2430" y="620" width="630" height="185" rx="20" ry="20" fill="#ffffff" stroke="#d7dfd8" stroke-width="2"/>
<rect x="2430" y="620" width="630" height="16" rx="9" ry="9" fill="#69ad78"/>
<text x="2458" y="692" font-family="Arial, Helvetica, sans-serif" font-size="34" font-weight="700" fill="#1e2b28">Context</text>
<text x="2458" y="745" font-family="Arial, Helvetica, sans-serif" font-size="21" font-weight="400" fill="#65726d">apply a sentence</text>
<rect x="2430" y="880" width="630" height="185" rx="20" ry="20" fill="#ffffff" stroke="#d7dfd8" stroke-width="2"/>
<rect x="2430" y="880" width="630" height="16" rx="9" ry="9" fill="#69ad78"/>
<text x="2458" y="952" font-family="Arial, Helvetica, sans-serif" font-size="34" font-weight="700" fill="#1e2b28">Outcome</text>
<text x="2458" y="1005" font-family="Arial, Helvetica, sans-serif" font-size="21" font-weight="400" fill="#65726d">choose safe representation</text>
<rect x="2430" y="1140" width="630" height="185" rx="20" ry="20" fill="#ffffff" stroke="#d7dfd8" stroke-width="2"/>
<rect x="2430" y="1140" width="630" height="16" rx="9" ry="9" fill="#69ad78"/>
<text x="2458" y="1212" font-family="Arial, Helvetica, sans-serif" font-size="34" font-weight="700" fill="#1e2b28">Verb</text>
<text x="2458" y="1265" font-family="Arial, Helvetica, sans-serif" font-size="21" font-weight="400" fill="#65726d">learn action use</text>
<rect x="2430" y="1400" width="630" height="185" rx="20" ry="20" fill="#ffffff" stroke="#d7dfd8" stroke-width="2"/>
<rect x="2430" y="1400" width="630" height="16" rx="9" ry="9" fill="#69ad78"/>
<text x="2458" y="1472" font-family="Arial, Helvetica, sans-serif" font-size="34" font-weight="700" fill="#1e2b28">Recall</text>
<text x="2458" y="1525" font-family="Arial, Helvetica, sans-serif" font-size="21" font-weight="400" fill="#65726d">remember through discovery</text>
<rect x="1160" y="500" width="880" height="235" rx="20" ry="20" fill="#ffffff" stroke="#d7dfd8" stroke-width="2"/>
<rect x="1160" y="500" width="880" height="16" rx="9" ry="9" fill="#67a7cb"/>
<text x="1188" y="572" font-family="Arial, Helvetica, sans-serif" font-size="34" font-weight="700" fill="#1e2b28">Translate</text>
<text x="1188" y="625" font-family="Arial, Helvetica, sans-serif" font-size="21" font-weight="400" fill="#65726d">What is the Talvori play moment?</text>
<rect x="1160" y="860" width="880" height="235" rx="20" ry="20" fill="#ffffff" stroke="#d7dfd8" stroke-width="2"/>
<rect x="1160" y="860" width="880" height="16" rx="9" ry="9" fill="#d96d67"/>
<text x="1188" y="932" font-family="Arial, Helvetica, sans-serif" font-size="34" font-weight="700" fill="#1e2b28">Guard</text>
<text x="1188" y="985" font-family="Arial, Helvetica, sans-serif" font-size="21" font-weight="400" fill="#65726d">Safety, sense, clutter, pressure.</text>
<rect x="1160" y="1220" width="880" height="235" rx="20" ry="20" fill="#ffffff" stroke="#d7dfd8" stroke-width="2"/>
<rect x="1160" y="1220" width="880" height="16" rx="9" ry="9" fill="#59b7aa"/>
<text x="1188" y="1292" font-family="Arial, Helvetica, sans-serif" font-size="34" font-weight="700" fill="#1e2b28">Exit</text>
<text x="1188" y="1345" font-family="Arial, Helvetica, sans-serif" font-size="21" font-weight="400" fill="#65726d">Later, Codex, Backlog, ContextCard.</text>
<line x1="770" y1="452" x2="1160" y2="610" stroke="#93a39c" stroke-width="6" stroke-linecap="round"/>
<polygon points="1160,610 1132,592 1132,628" fill="#93a39c"/>
<line x1="2040" y1="610" x2="2430" y2="452" stroke="#93a39c" stroke-width="6" stroke-linecap="round"/>
<polygon points="2430,452 2402,434 2402,470" fill="#93a39c"/>
<line x1="770" y1="712" x2="1160" y2="610" stroke="#93a39c" stroke-width="6" stroke-linecap="round"/>
<polygon points="1160,610 1132,592 1132,628" fill="#93a39c"/>
<line x1="2040" y1="610" x2="2430" y2="712" stroke="#93a39c" stroke-width="6" stroke-linecap="round"/>
<polygon points="2430,712 2402,694 2402,730" fill="#93a39c"/>
<line x1="770" y1="972" x2="1160" y2="970" stroke="#93a39c" stroke-width="6" stroke-linecap="round"/>
<polygon points="1160,970 1132,952 1132,988" fill="#93a39c"/>
<line x1="2040" y1="970" x2="2430" y2="972" stroke="#93a39c" stroke-width="6" stroke-linecap="round"/>
<polygon points="2430,972 2402,954 2402,990" fill="#93a39c"/>
<line x1="770" y1="1232" x2="1160" y2="970" stroke="#93a39c" stroke-width="6" stroke-linecap="round"/>
<polygon points="1160,970 1132,952 1132,988" fill="#93a39c"/>
<line x1="2040" y1="970" x2="2430" y2="1232" stroke="#93a39c" stroke-width="6" stroke-linecap="round"/>
<polygon points="2430,1232 2402,1214 2402,1250" fill="#93a39c"/>
<line x1="770" y1="1492" x2="1160" y2="1330" stroke="#93a39c" stroke-width="6" stroke-linecap="round"/>
<polygon points="1160,1330 1132,1312 1132,1348" fill="#93a39c"/>
<line x1="2040" y1="1330" x2="2430" y2="1492" stroke="#93a39c" stroke-width="6" stroke-linecap="round"/>
<polygon points="2430,1492 2402,1474 2402,1510" fill="#93a39c"/>
<rect x="520" y="1850" width="2160" height="220" rx="20" ry="20" fill="#ffffff" stroke="#d7dfd8" stroke-width="2"/>
<rect x="520" y="1850" width="2160" height="16" rx="9" ry="9" fill="#d6b95a"/>
<text x="548" y="1922" font-family="Arial, Helvetica, sans-serif" font-size="34" font-weight="700" fill="#1e2b28">Bridge rule</text>
<text x="548" y="1975" font-family="Arial, Helvetica, sans-serif" font-size="21" font-weight="400" fill="#65726d">No game pattern is copied directly. It must become a pressure-free meaning, choice or discovery moment that preserves all existing Talvori gates.</text>
</svg>