<svg width="96" height="100" viewBox="0 0 96 100" fill="none" xmlns="http://www.w3.org/2000/svg">
<g filter="url(#filter0_d_321_616)">
<path d="M48 91C71.7482 91 91 71.7482 91 48C91 24.2518 71.7482 5 48 5C24.2518 5 5 24.2518 5 48C5 71.7482 24.2518 91 48 91Z" stroke="white" stroke-width="0.5" stroke-linecap="round" stroke-linejoin="round"/>
<path d="M48.3599 66.04C58.301 66.04 66.3599 57.9811 66.3599 48.04C66.3599 38.0989 58.301 30.04 48.3599 30.04C38.4187 30.04 30.3599 38.0989 30.3599 48.04C30.3599 57.9811 38.4187 66.04 48.3599 66.04Z" stroke="white" stroke-width="0.5" stroke-linecap="round" stroke-linejoin="round"/>
<path d="M48.3601 30.04H87.0801M32.7721 57.04L13.4121 23.508M63.9481 57.04L44.5881 90.572" stroke="white" stroke-width="0.5" stroke-linecap="round" stroke-linejoin="round"/>
</g>
<defs>
<filter id="filter0_d_321_616" x="-4" y="0" width="104" height="104" filterUnits="userSpaceOnUse" color-interpolation-filters="sRGB">
<feFlood flood-opacity="0" result="BackgroundImageFix"/>
<feColorMatrix in="SourceAlpha" type="matrix" values="0 0 0 0 0 0 0 0 0 0 0 0 0 0 0 0 0 0 127 0" result="hardAlpha"/>
<feOffset dy="4"/>
<feGaussianBlur stdDeviation="2"/>
<feComposite in2="hardAlpha" operator="out"/>
<feColorMatrix type="matrix" values="0 0 0 0 0 0 0 0 0 0 0 0 0 0 0 0 0 0 0.25 0"/>
<feBlend mode="normal" in2="BackgroundImageFix" result="effect1_dropShadow_321_616"/>
<feBlend mode="normal" in="SourceGraphic" in2="effect1_dropShadow_321_616" result="shape"/>
</filter>
</defs>
</svg>
